# xmcd
#
# Track frame offsets: 
#        150
#        23641
#        39641
#        54717
#        70343
#        83335
#        93873
#        113821
#        128806
#        155320
#        167158
#        184390
#        203322
#        221415
#        238500
#
# Disc length: 3503 seconds
#
# Revision: 0
# Processed by: cddbd v1.5.1PL0 Copyright (c) Steve Scherf et al.
# Submitted via: ExactAudioCopy v0.95a4
#
DISCID=bc0dad0f
DTITLE=Сергей Трофимов - Ветер в голове
DYEAR=2004
DGENRE=
TTITLE0=Я уезжаю в Америку
TTITLE1=Тетя Соня
TTITLE2=Столичная
TTITLE3=Ой, мамочки
TTITLE4=Дембельская
TTITLE5=Салонный романс
TTITLE6=Ой, братцы
TTITLE7=Алёшка
TTITLE8=Боги мои, Боги
TTITLE9=Не моя вина
TTITLE10=Самая короткая ночь
TTITLE11=Пожалей меня, пожалей
TTITLE12=Ода вольности
TTITLE13=Ветер в голове
TTITLE14=Боже, какой пустяк
EXTD=
EXTT0=
EXTT1=
EXTT2=
EXTT3=
EXTT4=
EXTT5=
EXTT6=
EXTT7=
EXTT8=
EXTT9=
EXTT10=
EXTT11=
EXTT12=
EXTT13=
EXTT14=
PLAYORDER=
